# https://github.com/mikedh/trimesh
v -0.41085809 -0.44827089 -0.41481205
v -0.45070193 -0.09802270 -0.41548213
v -0.45818331 -0.23200632 -0.15686514
v -0.30223162 -0.43355422 -0.19642098
v -0.30874270 -0.48496746 0.06622557
v -0.06115515 -0.23723306 -0.41807543
v -0.42394214 -0.45289275 0.10562020
v -0.48958239 -0.31883047 0.30448632
v -0.31609623 -0.38580314 0.26214473
v 0.29265397 -0.47807614 0.06843420
v -0.30786294 0.04668964 0.04592112
v -0.30969231 0.27641822 -0.41836386
v -0.39284031 0.17893206 -0.10881155
v -0.22693312 0.01231365 -0.41516224
v -0.23767694 0.36700553 -0.07814584
v -0.48835918 0.17361665 0.40244468
v -0.17301122 0.15825556 0.03401179
v -0.06831016 0.29742008 0.43447430
v -0.31436925 0.16468852 0.40887095
v -0.37044922 0.40605936 0.46304317
v -0.03484542 0.53057793 0.44721710
v 0.03912794 0.43664019 -0.01496045
v 0.30708567 -0.43229536 -0.18845230
v 0.23606055 -0.50245070 -0.16742847
v 0.43112942 -0.44511885 -0.41203146
v 0.22273887 -0.10406537 -0.41662053
v 0.43420736 -0.45200412 0.07232116
v 0.30736230 -0.37550605 0.24579540
v 0.33209364 0.07466381 0.39084453
v 0.28941463 0.08243272 0.04367852
v 0.46222157 -0.36310201 0.29224634
v 0.46281985 -0.10741859 -0.08500006
v 0.49652325 0.05750523 0.38466125
v 0.06563161 0.18166633 -0.42024196
v 0.20849306 0.28085457 -0.45787579
v 0.33730457 0.10588346 -0.46111168
v 0.35123527 0.23092708 -0.41690070
v 0.15755233 0.35488063 -0.41479498
v 0.32167222 0.33250263 0.02590034
v 0.06974028 0.17304953 0.03974828
v 0.20070963 0.30241996 0.46361039
v 0.42721113 0.21615293 0.12864259
v 0.34924989 0.41852152 0.45327775
f 1 7 3
f 1 4 7
f 2 1 3
f 1 6 25
f 7 4 5
f 4 24 5
f 4 23 24
f 2 14 1
f 1 14 6
f 14 34 6
f 6 34 26
f 8 3 7
f 9 8 7
f 8 16 3
f 16 8 19
f 8 9 19
f 7 5 9
f 5 11 9
f 11 19 9
f 2 13 12
f 2 3 13
f 14 2 12
f 38 14 12
f 14 38 34
f 13 15 12
f 15 22 12
f 12 22 38
f 3 16 13
f 13 16 20
f 20 15 13
f 11 17 18
f 11 18 19
f 11 40 17
f 17 40 18
f 18 40 41
f 19 18 20
f 20 21 15
f 15 21 22
f 16 19 20
f 18 41 20
f 4 1 23
f 24 10 5
f 1 25 23
f 10 24 23
f 6 26 25
f 25 26 37
f 27 25 32
f 25 27 23
f 37 32 25
f 10 23 27
f 10 27 28
f 5 10 11
f 10 30 11
f 28 29 10
f 10 29 30
f 28 27 31
f 27 32 31
f 28 31 29
f 32 33 31
f 31 33 29
f 35 36 34
f 34 36 35
f 34 38 26
f 38 22 37
f 39 37 22
f 38 37 26
f 32 39 42
f 39 32 37
f 30 40 11
f 30 41 40
f 30 29 41
f 22 21 43
f 22 43 39
f 20 41 21
f 43 21 41
f 32 42 33
f 42 43 33
f 29 43 41
f 29 33 43
f 43 42 39

